<svg width="1200" height="630" viewBox="0 0 1200 630" xmlns="http://www.w3.org/2000/svg" style="font-family: system-ui, -apple-system, sans-serif;">
<rect width="1200" height="630" fill="#1a1a1a" rx="0"/>

<text x="600" y="60" text-anchor="middle" fill="#e0e0e0" font-size="28" font-weight="500">MuninnDB Dream Engine</text>
<text x="600" y="92" text-anchor="middle" fill="#888" font-size="16">LLM-driven memory consolidation between sessions</text>

<g>
<rect x="60" y="140" width="220" height="80" rx="10" fill="#3C3489" stroke="#7F77DD" stroke-width="0.8"/>
<text x="170" y="172" text-anchor="middle" fill="#CECBF6" font-size="16" font-weight="500">Phase 0</text>
<text x="170" y="196" text-anchor="middle" fill="#AFA9EC" font-size="13">Orient (read-only)</text>
</g>
<line x1="280" y1="180" x2="320" y2="180" stroke="#666" stroke-width="1.5" marker-end="url(#a)"/>

<g>
<rect x="325" y="140" width="220" height="80" rx="10" fill="#2C2C2A" stroke="#5F5E5A" stroke-width="0.8"/>
<text x="435" y="172" text-anchor="middle" fill="#D3D1C7" font-size="16" font-weight="500">Phase 1</text>
<text x="435" y="196" text-anchor="middle" fill="#B4B2A9" font-size="13">Replay</text>
</g>
<line x1="545" y1="180" x2="585" y2="180" stroke="#666" stroke-width="1.5" marker-end="url(#a)"/>

<g>
<rect x="590" y="140" width="220" height="80" rx="10" fill="#085041" stroke="#1D9E75" stroke-width="0.8"/>
<text x="700" y="172" text-anchor="middle" fill="#9FE1CB" font-size="16" font-weight="500">Phase 2</text>
<text x="700" y="196" text-anchor="middle" fill="#5DCAA5" font-size="13">Dedup (threshold 0.85)</text>
</g>
<line x1="810" y1="180" x2="855" y2="180" stroke="#666" stroke-width="1.5" marker-end="url(#a)"/>

<g>
<rect x="860" y="140" width="280" height="80" rx="10" fill="#3C3489" stroke="#7F77DD" stroke-width="0.8"/>
<text x="1000" y="172" text-anchor="middle" fill="#CECBF6" font-size="16" font-weight="500">Phase 2b</text>
<text x="1000" y="196" text-anchor="middle" fill="#AFA9EC" font-size="13">LLM consolidate</text>
</g>

<path d="M1000 220 L1000 270 L170 270 L170 320" fill="none" stroke="#666" stroke-width="1.5" marker-end="url(#a)"/>

<g>
<rect x="60" y="325" width="220" height="80" rx="10" fill="#2C2C2A" stroke="#5F5E5A" stroke-width="0.8"/>
<text x="170" y="357" text-anchor="middle" fill="#D3D1C7" font-size="16" font-weight="500">Phase 3</text>
<text x="170" y="381" text-anchor="middle" fill="#B4B2A9" font-size="13">Schema promotion</text>
</g>
<line x1="280" y1="365" x2="320" y2="365" stroke="#666" stroke-width="1.5" marker-end="url(#a)"/>

<g>
<rect x="325" y="325" width="220" height="80" rx="10" fill="#3C3489" stroke="#7F77DD" stroke-width="0.8"/>
<text x="435" y="357" text-anchor="middle" fill="#CECBF6" font-size="16" font-weight="500">Phase 4</text>
<text x="435" y="381" text-anchor="middle" fill="#AFA9EC" font-size="13">Bidirectional stability</text>
</g>
<line x1="545" y1="365" x2="585" y2="365" stroke="#666" stroke-width="1.5" marker-end="url(#a)"/>

<g>
<rect x="590" y="325" width="220" height="80" rx="10" fill="#2C2C2A" stroke="#5F5E5A" stroke-width="0.8"/>
<text x="700" y="357" text-anchor="middle" fill="#D3D1C7" font-size="16" font-weight="500">Phase 5</text>
<text x="700" y="381" text-anchor="middle" fill="#B4B2A9" font-size="13">Transitive inference</text>
</g>
<line x1="810" y1="365" x2="855" y2="365" stroke="#666" stroke-width="1.5" marker-end="url(#a)"/>

<g>
<rect x="860" y="325" width="280" height="80" rx="10" fill="#3C3489" stroke="#7F77DD" stroke-width="0.8"/>
<text x="1000" y="357" text-anchor="middle" fill="#CECBF6" font-size="16" font-weight="500">Phase 6</text>
<text x="1000" y="381" text-anchor="middle" fill="#AFA9EC" font-size="13">Dream journal</text>
</g>

<rect x="60" y="470" width="14" height="14" rx="4" fill="#3C3489" stroke="#7F77DD" stroke-width="0.5"/>
<text x="84" y="482" fill="#999" font-size="13">New</text>
<rect x="145" y="470" width="14" height="14" rx="4" fill="#085041" stroke="#1D9E75" stroke-width="0.5"/>
<text x="169" y="482" fill="#999" font-size="13">Modified</text>
<rect x="255" y="470" width="14" height="14" rx="4" fill="#2C2C2A" stroke="#5F5E5A" stroke-width="0.5"/>
<text x="279" y="482" fill="#999" font-size="13">Existing (unchanged)</text>

<text x="600" y="540" text-anchor="middle" fill="#666" font-size="14">Legal vaults skip Phase 2b entirely. Work/personal: Ollama or Anthropic only. No data to OpenAI.</text>
<text x="600" y="590" text-anchor="middle" fill="#555" font-size="13">github.com/5queezer/muninndb</text>

<defs>
<marker id="a" viewBox="0 0 10 10" refX="8" refY="5" markerWidth="6" markerHeight="6" orient="auto-start-reverse">
<path d="M2 1L8 5L2 9" fill="none" stroke="#666" stroke-width="1.5" stroke-linecap="round" stroke-linejoin="round"/>
</marker>
</defs>
</svg>
